HIERARCHY
ROOT ROOT
{
	OFFSET 0.000000 56.020000 -5.659234
	CHANNELS 6 Xposition Yposition Zposition Xrotation Yrotation Zrotation 
	JOINT C_spine0001_bind_JNT
	{
		OFFSET 0.000000 1.618999 0.000000
		CHANNELS 3 Xrotation Yrotation Zrotation
		JOINT C_spine0002_bind_JNT
		{
			OFFSET 0.000000 4.942001 0.000001
			CHANNELS 3 Xrotation Yrotation Zrotation
			JOINT C_spine0003_bind_JNT
			{
				OFFSET 0.000000 4.942001 -0.000000
				CHANNELS 3 Xrotation Yrotation Zrotation
				JOINT C_neck0001_bind_JNT
				{
					OFFSET 0.000000 17.026009 -0.000000
					CHANNELS 3 Xrotation Yrotation Zrotation
					JOINT C_neck0002_bind_JNT
					{
						OFFSET 0.000000 3.249985 0.000000
						CHANNELS 3 Xrotation Yrotation Zrotation
						JOINT C_head_bind_JNT
						{
							OFFSET 0.000000 5.278008 0.000000
							CHANNELS 3 Xrotation Yrotation Zrotation
							End Site
							{
								OFFSET 0.000000 0.000000 0.000000
							}
						}
					}
				}
				JOINT L_clavicle_bind_JNT
				{
					OFFSET 4.590000 12.067001 0.834000
					CHANNELS 3 Xrotation Yrotation Zrotation
					JOINT L_armUpper0001_bind_JNT
					{
						OFFSET 7.812635 0.512001 -3.452945
						CHANNELS 3 Xrotation Yrotation Zrotation
						JOINT L_armLower0001_bind_JNT
						{
							OFFSET 15.265892 -6.552116 -0.058157
							CHANNELS 3 Xrotation Yrotation Zrotation
							JOINT L_hand0001_bind_JNT
							{
								OFFSET 14.747667 -6.369995 5.049225
								CHANNELS 3 Xrotation Yrotation Zrotation
								End Site
								{
									OFFSET 0.000000 0.000000 0.000000
								}
							}
						}
					}
				}
				JOINT R_clavicle_bind_JNT
				{
					OFFSET -4.590000 12.067001 0.834000
					CHANNELS 3 Xrotation Yrotation Zrotation
					JOINT R_armUpper0001_bind_JNT
					{
						OFFSET -7.812635 0.512001 -3.452945
						CHANNELS 3 Xrotation Yrotation Zrotation
						JOINT R_armLower0001_bind_JNT
						{
							OFFSET -15.265890 -6.552124 -0.058160
							CHANNELS 3 Xrotation Yrotation Zrotation
							JOINT R_hand0001_bind_JNT
							{
								OFFSET -14.746784 -6.369629 5.048937
								CHANNELS 3 Xrotation Yrotation Zrotation
								End Site
								{
									OFFSET 0.000000 0.000000 0.000000
								}
							}
						}
					}
				}
			}
		}
	}
	JOINT C_pelvis0001_bind_JNT
	{
		OFFSET -0.000000 0.000000 0.000000
		CHANNELS 3 Xrotation Yrotation Zrotation
		JOINT L_legUpper0001_bind_JNT
		{
			OFFSET 6.599999 -6.027000 0.539000
			CHANNELS 3 Xrotation Yrotation Zrotation
			JOINT L_legLower0001_bind_JNT
			{
				OFFSET -0.140713 -19.187443 0.040261
				CHANNELS 3 Xrotation Yrotation Zrotation
				JOINT L_foot0001_bind_JNT
				{
					OFFSET -0.132215 -18.028637 -1.138370
					CHANNELS 3 Xrotation Yrotation Zrotation
					JOINT L_foot0002_bind_JNT
					{
						OFFSET 0.007014 -4.693133 9.886524
						CHANNELS 3 Xrotation Yrotation Zrotation
						End Site
						{
							OFFSET 0.000000 0.000000 0.000000
						}
					}
				}
			}
		}
		JOINT R_legUpper0001_bind_JNT
		{
			OFFSET -6.599999 -6.027000 0.539000
			CHANNELS 3 Xrotation Yrotation Zrotation
			JOINT R_legLower0001_bind_JNT
			{
				OFFSET 0.140710 -19.187164 0.040550
				CHANNELS 3 Xrotation Yrotation Zrotation
				JOINT R_foot0001_bind_JNT
				{
					OFFSET 0.132215 -18.028633 -1.138362
					CHANNELS 3 Xrotation Yrotation Zrotation
					JOINT R_foot0002_bind_JNT
					{
						OFFSET -0.007014 -4.693128 9.886505
						CHANNELS 3 Xrotation Yrotation Zrotation
						End Site
						{
							OFFSET 0.000000 0.000000 0.000000
						}
					}
				}
			}
		}
	}
}
MOTION
Frames: 9
Frame Time: 0.033333
-6.269901 46.285233 122.362862 0.005327 6.637569 -0.033117 -1.823944 8.594351 4.806008 0.338504 10.009119 -9.896381 2.214902 8.258163 -4.099041 4.663960 -0.837072 0.770477 -1.077684 -10.884362 -0.566101 -12.671689 -0.622564 -5.268309 -2.273024 21.427816 -4.512768 6.901650 24.472008 -43.806793 1.128738 18.548227 3.335823 -5.529675 -18.502121 -27.128225 -9.900072 4.046355 -3.351510 -5.250364 -5.168068 54.916412 5.964422 -1.099486 13.287540 0.483934 15.614283 28.718199 -0.573354 9.096433 3.839108 -19.656784 0.950267 -13.858916 7.131136 -10.500810 -0.992813 3.739837 -4.125314 1.175175 0.816288 -0.060210 -0.788745 30.854988 3.421106 13.266195 -5.745741 -4.572938 -1.369106 0.883262 4.920090 -6.238132 -21.501123 0.815188 -2.050724 
-5.923808 46.491730 124.159798 0.023828 7.129550 -0.008246 -1.811129 8.182611 5.551824 0.001231 9.955317 -10.743867 2.086256 8.051096 -4.273499 4.371057 -0.794471 0.306165 -1.015583 -10.336897 -0.232963 -11.890591 -1.153095 -3.302147 -1.870807 20.862377 -4.618391 7.127028 24.006500 -46.016369 -1.032071 19.315847 4.633870 -5.822761 -17.994713 -27.499434 -9.452098 3.280096 -2.838126 -3.412612 -6.401071 57.327579 6.429317 -0.793153 11.981236 0.922140 17.356245 28.949007 -0.403681 8.845959 4.231972 -18.019577 0.281411 -14.604641 8.212235 -10.129766 -0.800046 3.081786 -3.705295 2.647119 0.463026 -0.427033 -0.795398 30.303093 2.705610 11.554524 -2.463400 -5.444512 -0.431106 2.934515 6.172543 -3.712213 -26.209793 0.969655 -2.718122 
-5.540789 46.599651 125.975952 0.006445 7.131117 -0.032532 -1.922955 7.866147 6.183177 -0.247558 9.598413 -11.138149 1.896326 7.738627 -4.313097 4.230115 -0.865444 -0.390892 -0.963440 -9.372468 -0.062704 -10.972066 -1.648395 -1.594609 -1.755377 20.088581 -4.417772 7.758821 23.652668 -48.565735 -1.471529 19.446526 5.478198 -7.887587 -17.644098 -28.268347 -9.099716 1.505476 -2.770616 -1.230004 -7.000393 59.852024 7.852450 -0.473439 10.615754 1.035661 19.268951 29.564024 -0.808480 8.566305 4.823010 -15.606817 -0.365815 -15.433899 8.415274 -9.116625 -0.662395 2.919282 -3.589250 4.161202 0.398189 -0.281356 -0.705656 28.904837 1.931017 9.371443 2.177084 -6.458686 1.276233 6.359734 8.954001 -0.574046 -28.914280 1.605214 -4.233574 
-5.145777 46.762878 127.965523 0.007465 7.865178 -0.014929 -2.209940 6.586223 6.719775 -0.268908 8.776396 -11.566824 1.583492 7.169331 -4.256776 4.064001 -1.178382 -0.936291 -0.899837 -7.688301 0.346200 -10.342451 -2.070334 0.437761 -1.351948 19.223015 -4.579378 8.263095 22.683081 -51.179398 -2.110944 18.997406 5.112350 -9.733195 -17.315914 -28.269358 -8.420321 -0.366354 -2.855837 1.214056 -8.294853 62.718647 9.723909 0.390938 9.265003 1.417201 20.489946 29.374012 -0.875009 6.994475 5.522904 -13.472090 -0.391630 -16.453827 9.295195 -8.695128 -0.721270 1.757626 -2.613547 5.782866 0.290670 -0.516987 -0.682455 25.442509 1.411550 6.422627 11.101667 -7.307394 3.631451 9.206775 13.070576 3.060506 -26.095531 0.778216 -5.181248 
-4.738551 46.774475 130.052475 0.028498 8.299453 -0.047883 -2.712470 4.842576 7.281414 -0.043104 7.768471 -11.730458 1.430391 6.251447 -4.307477 4.139506 -0.940257 -1.450289 -0.938178 -5.993413 0.403685 -9.307261 -2.530505 2.272383 -1.801382 18.091501 -3.841182 9.247056 21.936371 -54.775997 -2.000798 18.530479 4.823600 -12.247794 -16.960400 -28.284735 -8.375293 -2.327028 -2.498038 3.685449 -9.279492 64.619919 12.031688 0.608840 8.096255 0.901954 21.605724 29.010021 -1.508253 5.359129 6.075226 -10.734021 -1.141698 -17.627182 10.204243 -7.191213 -0.043338 0.312841 -1.641976 6.692242 -0.084422 -0.287734 -0.182108 20.607012 0.957280 3.453667 23.131863 -7.992944 5.300497 9.355057 17.111641 7.018633 -16.742403 -0.285064 -3.386460 
-4.435985 46.919903 132.125763 0.004404 9.396944 -0.029669 -3.209734 2.009326 7.301671 0.315179 6.679480 -11.327185 1.183835 5.369116 -3.891820 3.947480 -1.235990 -1.836187 -1.194243 -3.757287 0.869257 -9.006396 -2.759010 3.173721 -1.830721 16.977165 -3.699926 9.431085 20.174734 -57.620663 -1.729898 17.464151 2.518982 -14.796448 -16.572407 -27.025551 -7.727579 -5.254530 -2.056734 5.636307 -9.338383 65.093781 13.796929 0.634032 7.212584 -0.159847 22.224188 28.877041 -1.857317 2.590939 6.298687 -7.834851 -1.735336 -17.566336 10.439183 -5.515778 -0.194192 -1.474631 -0.778229 7.694797 -0.347933 0.119754 -0.496841 13.697424 0.790393 0.294422 37.334034 -6.813843 6.154571 6.521459 18.973356 11.164474 -4.597733 -0.578624 -0.158129 
-4.106290 47.033493 134.068604 0.025025 9.505908 -0.052320 -3.391152 0.333965 7.046328 0.335436 4.835349 -10.496052 0.952882 3.942241 -3.966669 4.031591 -0.684205 -2.150018 -1.285461 -2.012380 1.031644 -8.121393 -3.069484 4.190130 -2.638627 15.515220 -3.117878 9.304688 19.374840 -60.348797 -0.894710 16.256456 1.565560 -18.118345 -15.559744 -26.288397 -7.686164 -7.673626 -1.136822 7.261683 -9.420984 64.579697 15.118915 -0.635181 7.172761 -1.284701 22.893848 28.511013 -1.876947 0.948024 5.980272 -5.124078 -2.351314 -18.125452 9.865899 -3.939889 0.410426 -2.867126 -0.428834 8.622855 -0.583272 0.016465 -0.653150 5.777882 0.720206 -1.680138 50.499973 -6.453235 5.878395 3.061786 20.668247 12.680972 2.907187 -0.831912 0.278119 
-4.054168 47.210915 136.090515 0.013530 10.524699 -0.051794 -4.001063 -2.538290 6.255321 0.763037 3.265331 -9.374955 1.074609 2.491558 -3.487196 3.744709 -0.999295 -2.408563 -1.480761 0.150430 1.285891 -7.894468 -2.589888 4.437471 -2.752080 14.036033 -3.172652 7.618974 16.998529 -61.524380 -0.616104 16.273016 -0.650991 -20.967762 -16.002340 -25.276552 -7.151457 -10.604048 -0.627241 7.711211 -9.787741 63.702377 16.573959 -1.974644 7.367259 -2.736403 23.371988 29.000196 -2.146179 -1.918829 5.589068 -1.356438 -2.596485 -17.326385 8.353166 -2.872364 0.821292 -4.183722 -0.043969 8.191813 -0.625511 0.147517 -0.609503 -1.175155 0.329155 -3.844864 61.348312 -3.950509 4.879914 -1.450587 18.071312 12.514297 7.582335 -0.736861 0.375407 
-4.127755 47.376896 138.091354 0.014206 11.263245 -0.031449 -4.455815 -4.797251 5.166074 0.986336 1.064228 -7.944513 1.124910 0.523033 -3.255900 3.754376 -0.503791 -2.399454 -1.437188 2.187612 1.179538 -7.671662 -2.477346 4.069673 -3.509864 12.873688 -2.822085 5.913704 15.218789 -62.140926 0.715036 16.812706 -1.646796 -23.893814 -15.973531 -25.234676 -6.799240 -12.722480 -0.072821 8.966871 -10.720681 62.956623 17.450052 -2.653625 6.694619 -4.507109 23.781525 29.391678 -2.445337 -4.495249 5.055731 2.479760 -2.962498 -16.879808 6.630036 -2.383344 1.512637 -5.497744 0.448660 8.051949 -0.594550 -0.412661 -0.831465 -7.798373 0.074608 -4.356243 68.658920 -2.863728 3.251317 -4.909570 15.178025 10.574555 8.386183 -1.149916 -0.577121 
